<?xml version="1.0" encoding="UTF-8" standalone="no"?>
<!-- Created with Inkscape (http://www.inkscape.org/) -->

<svg
   version="1.1"
   id="svg1"
   width="1024"
   height="1024"
   viewBox="0 0 1024 1024"
   sodipodi:docname="valiente.svg"
   inkscape:version="1.4 (e7c3feb100, 2024-10-09)"
   inkscape:export-filename="valiente1.png"
   inkscape:export-xdpi="96"
   inkscape:export-ydpi="96"
   xmlns:inkscape="http://www.inkscape.org/namespaces/inkscape"
   xmlns:sodipodi="http://sodipodi.sourceforge.net/DTD/sodipodi-0.dtd"
   xmlns="http://www.w3.org/2000/svg"
   xmlns:svg="http://www.w3.org/2000/svg">
  <defs
     id="defs1">
    <inkscape:path-effect
       effect="fillet_chamfer"
       id="path-effect38"
       is_visible="true"
       lpeversion="1"
       nodesatellites_param="F,0,0,1,0,0,0,1 @ F,0,0,1,0,0,0,1 @ F,0,0,1,0,0,0,1 @ F,0,0,1,0,0,0,1 @ F,0,0,1,0,0,0,1 | F,0,0,1,0,0,0,1 @ F,0,0,1,0,0,0,1 @ F,0,0,1,0,0,0,1 @ F,0,0,1,0,0,0,1 @ F,0,0,1,0,0,0,1 @ F,0,0,1,0,0,0,1 @ F,0,0,1,0,0,0,1 @ F,0,0,1,0,0,0,1 @ F,0,0,1,0,0,0,1 @ F,0,0,1,0,0,0,1 @ F,0,0,1,0,0,0,1 @ F,0,0,1,0,0,0,1 @ F,0,0,1,0,0,0,1 @ F,0,0,1,0,0,0,1 @ F,0,0,1,0,0,0,1 @ F,0,0,1,0,0,0,1 @ F,0,0,1,0,0,0,1 @ F,0,0,1,0,0,0,1 @ F,0,0,1,0,0,0,1 @ F,0,0,1,0,0,0,1 @ F,0,0,1,0,0,0,1 @ F,0,0,1,0,0,0,1 @ F,0,0,1,0,0,0,1 @ F,0,0,1,0,0,0,1 @ F,0,0,1,0,0,0,1 @ F,0,0,1,0,0,0,1 @ F,0,0,1,0,0,0,1 @ F,0,0,1,0,0,0,1 @ F,0,0,1,0,0,0,1 @ F,0,0,1,0,0,0,1 @ F,0,0,1,0,0,0,1 @ F,0,0,1,0,0,0,1 @ F,0,0,1,0,0,0,1 @ F,0,0,1,0,0,0,1 @ F,0,0,1,0,0,0,1 @ F,0,0,1,0,0,0,1 @ F,0,0,1,0,0,0,1 @ F,0,0,1,0,0,0,1 @ F,0,0,1,0,0,0,1 @ F,0,0,1,0,0,0,1 @ F,0,0,1,0,0,0,1 @ F,0,0,1,0,0,0,1 @ F,0,0,1,0,0,0,1 @ F,0,0,1,0,0,0,1 @ F,0,0,1,0,0,0,1 @ F,0,0,1,0,0,0,1 @ F,0,0,1,0,0,0,1 @ F,0,0,1,0,0,0,1 @ F,0,0,1,0,0,0,1 @ F,0,0,1,0,0,0,1 @ F,0,0,1,0,0,0,1 @ F,0,0,1,0,0,0,1 @ F,0,0,1,0,0,0,1 @ F,0,0,1,0,0,0,1 @ F,0,0,1,0,0,0,1 @ F,0,0,1,0,0,0,1 @ F,0,0,1,0,0,0,1 @ F,0,0,1,0,0,0,1 @ F,0,0,1,0,0,0,1 @ F,0,0,1,0,0,0,1 @ F,0,0,1,0,0,0,1 @ F,0,0,1,0,0,0,1 @ F,0,0,1,0,0,0,1 @ F,0,0,1,0,0,0,1 @ F,0,0,1,0,0,0,1 @ F,0,0,1,0,0,0,1 @ F,0,0,1,0,0,0,1 @ F,0,0,1,0,0,0,1 @ F,0,0,1,0,0,0,1 @ F,0,0,1,0,0,0,1 @ F,0,0,1,0,0,0,1 @ F,0,0,1,0,0,0,1 @ F,0,0,1,0,0,0,1 @ F,0,0,1,0,0,0,1 @ F,0,0,1,0,0,0,1 @ F,0,0,1,0,0,0,1 @ F,0,0,1,0,0,0,1 @ F,0,0,1,0,0,0,1 @ F,0,0,1,0,0,0,1 @ F,0,0,1,0,0,0,1 @ F,0,0,1,0,0,0,1 @ F,0,0,1,0,0,0,1 @ F,0,0,1,0,0,0,1 @ F,0,0,1,0,0,0,1 @ F,0,0,1,0,0,0,1 @ F,0,0,1,0,0,0,1 @ F,0,0,1,0,0,0,1 @ F,0,0,1,0,0,0,1 @ F,0,0,1,0,0,0,1 @ F,0,0,1,0,0,0,1 @ F,0,0,1,0,0,0,1 @ F,0,0,1,0,0,0,1 @ F,0,0,1,0,0,0,1 @ F,0,0,1,0,0,0,1 @ F,0,0,1,0,0,0,1 @ F,0,0,1,0,0,0,1 @ F,0,0,1,0,0,0,1 @ F,0,0,1,0,0,0,1 @ F,0,0,1,0,0,0,1 @ F,0,0,1,0,0,0,1 | F,0,0,1,0,0,0,1 @ F,0,0,1,0,0,0,1 @ F,0,0,1,0,0,0,1 @ F,0,0,1,0,0,0,1 @ F,0,0,1,0,0,0,1 @ F,0,0,1,0,0,0,1 @ F,0,0,1,0,0,0,1 @ F,0,0,1,0,0,0,1 @ F,0,0,1,0,0,0,1 @ F,0,0,1,0,0,0,1 @ F,0,0,1,0,0,0,1 | F,0,0,1,0,0,0,1 @ F,0,0,1,0,0,0,1 @ F,0,0,1,0,0,0,1 @ F,0,0,1,0,0,0,1 | F,0,0,1,0,0,0,1 @ F,0,0,1,0,0,0,1 @ F,0,0,1,0,0,0,1 @ F,0,0,1,0,0,0,1 @ F,0,0,1,0,0,0,1 @ F,0,0,1,0,0,0,1 @ F,0,0,1,0,0,0,1 @ F,0,0,1,0,0,0,1 @ F,0,0,1,0,0,0,1 @ F,0,0,1,0,0,0,1 @ F,0,0,1,0,0,0,1 @ F,0,0,1,0,0,0,1 @ F,0,0,1,0,0,0,1 @ F,0,0,1,0,0,0,1 @ F,0,0,1,0,0,0,1 @ F,0,0,1,0,0,0,1 @ F,0,0,1,0,0,0,1 @ F,0,0,1,0,0,0,1 | F,0,0,1,0,0,0,1 @ F,0,0,1,0,0,0,1 @ F,0,0,1,0,0,0,1 @ F,0,0,1,0,0,0,1 @ F,0,0,1,0,0,0,1 @ F,0,0,1,0,0,0,1 @ F,0,0,1,0,0,0,1 @ F,0,0,1,0,0,0,1 @ F,0,0,1,0,0,0,1 @ F,0,0,1,0,0,0,1 @ F,0,0,1,0,0,0,1 | F,0,0,1,0,0,0,1 @ F,0,0,1,0,0,0,1 @ F,0,0,1,0,0,0,1 @ F,0,0,1,0,0,0,1 @ F,0,0,1,0,0,0,1 @ F,0,0,1,0,0,0,1 @ F,0,0,1,0,0,0,1 @ F,0,0,1,0,0,0,1 @ F,0,0,1,0,0,0,1 @ F,0,0,1,0,0,0,1 @ F,0,0,1,0,0,0,1 @ F,0,0,1,0,0,0,1 @ F,0,0,1,0,0,0,1 @ F,0,0,1,0,0,0,1 @ F,0,0,1,0,0,0,1 @ F,0,0,1,0,0,0,1 @ F,0,0,1,0,0,0,1 @ F,0,0,1,0,0,0,1 @ F,0,0,1,0,0,0,1 @ F,0,0,1,0,0,0,1 @ F,0,0,1,0,0,0,1 @ F,0,0,1,0,0,0,1 | F,0,0,1,0,0,0,1 @ F,0,0,1,0,0,0,1 @ F,0,0,1,0,0,0,1 @ F,0,0,1,0,0,0,1 @ F,0,0,1,0,0,0,1 | F,0,0,1,0,0,0,1 @ F,0,0,1,0,0,0,1 @ F,0,0,1,0,0,0,1 @ F,0,0,1,0,0,0,1 @ F,0,0,1,0,0,0,1 @ F,0,0,1,0,0,0,1 @ F,0,0,1,0,0,0,1 @ F,0,0,1,0,0,0,1 @ F,0,0,1,0,0,0,1"
       radius="0"
       unit="px"
       method="auto"
       mode="F"
       chamfer_steps="1"
       flexible="false"
       use_knot_distance="true"
       apply_no_radius="true"
       apply_with_radius="true"
       only_selected="false"
       hide_knots="false" />
  </defs>
  <sodipodi:namedview
     id="namedview1"
     pagecolor="#505050"
     bordercolor="#ffffff"
     borderopacity="1"
     inkscape:showpageshadow="0"
     inkscape:pageopacity="0"
     inkscape:pagecheckerboard="1"
     inkscape:deskcolor="#505050"
     inkscape:zoom="0.70710678"
     inkscape:cx="383.95898"
     inkscape:cy="537.40115"
     inkscape:window-width="2560"
     inkscape:window-height="1371"
     inkscape:window-x="0"
     inkscape:window-y="0"
     inkscape:window-maximized="1"
     inkscape:current-layer="g1"
     inkscape:export-bgcolor="#ffffff00" />
  <g
     inkscape:groupmode="layer"
     inkscape:label="Image"
     id="g1"
     style="display:inline"
     transform="translate(-9.4900385,-187.72462)">
    <circle
       style="display:inline;fill:#000000;fill-opacity:0;stroke:#310b5d;stroke-width:50;stroke-dasharray:none;stroke-opacity:1"
       id="path38"
       cx="512"
       cy="512"
       r="487.00815"
       transform="translate(9.4900385,187.72462)" />
    <g
       id="g41"
       style="display:inline">
      <rect
         style="display:inline;opacity:1;fill:#310b5d;fill-opacity:1;stroke:none;stroke-width:50;stroke-dasharray:none;stroke-opacity:1"
         id="rect39"
         width="379.5"
         height="49"
         x="343.99005"
         y="1115.2246" />
      <rect
         style="display:inline;opacity:1;fill:#310b5d;fill-opacity:1;stroke:none;stroke-width:41.3211;stroke-dasharray:none;stroke-opacity:1"
         id="rect38"
         width="465.655"
         height="52.657959"
         x="261.54849"
         y="1074.8115" />
    </g>
    <g
       id="g33"
       style="display:inline"
       transform="matrix(1.0012639,0,0,1.0012639,11.36962,189.23546)">
      <path
         style="fill:#e22388"
         d="M 45,504.74052 C 45,490.25983 76.79366,436.5558 115.81093,400.75 168.15144,352.71757 217.79424,328.80815 312,301.31514 c 38.40756,-11.20886 80.19129,-28.02667 99,-36.53026 4.4,-1.98928 22.6,-11.54041 38,-18.7803 65.48668,-30.78676 97.4526,-32.6876 155.72001,-32.49912 54.12262,0.17509 108.47761,11.95879 152.14561,41.17351 26.78704,17.92104 58.96113,63.02175 58.96113,76.62875 0,10.54165 -40.15794,16.62381 -67.32675,10.1415 -26.05459,-6.21646 -56.23269,-10.83342 -61.96545,-13.79795 -28.48921,-8.38053 -53.09858,-14.68479 -81.77042,-22.45632 -8.67944,-2.30064 -12.50201,-7.66217 -19.29379,-10.32078 -5.74591,-2.24921 -11.74341,-4.54794 -17.91266,-4.66978 C 547.58005,289.80984 523.33214,299.77678 509,303.02425 503.50817,305.76605 483.33968,313 481.18726,313 c -1.22481,0 -7.1185,2.63547 -25.18726,11.26294 -41.7867,19.95229 -48.83548,23.02753 -70.5,30.75772 -10.55221,3.76517 -39.62511,11.72769 -49.31307,13.50592 -24.49984,4.49697 -31.05332,5.52439 -44.18693,6.92744 -7.975,0.85195 -17.65,1.98636 -21.5,2.52091 -3.85,0.53455 -9.25,1.24596 -12,1.58091 -20.7704,2.52987 -73.96169,16.1461 -76.00792,19.45698 -0.33556,0.54295 -1.41895,0.98718 -2.40753,0.98718 -9.98754,0 -68.47776,38.92691 -89.46097,58.04775 C 75.423729,471.89853 47,500.34623 47,503.51587 c 0,0.75135 -0.45,1.64421 -1,1.98413 -0.55,0.33992 -1,-0.002 -1,-0.75948 z"
         id="path36"
         sodipodi:nodetypes="ssssssassssaassssssssssssss" />
      <path
         style="fill:#ab0693"
         d="m 318.4237,880.80861 c -6.55028,-7.04491 -34.66313,-43.96582 -69.8372,-103.54307 -4.87076,-8.25 -14.70037,-21.43136 -20.98044,-31.88136 -28.13847,-46.82225 -38.42548,-61.58377 -39.39001,-64.35063 -1.61317,-4.62755 8.70786,-30.6739 26.16937,-69.03103 1.87785,-4.125 12.95471,-19.27645 14.54464,-22.98895 3.55835,-8.30878 16.31387,5.82748 15.39862,13.4817 -13.48254,59.54942 -3.29842,99.11599 26.3816,150.20953 13.97307,29.9875 44.85248,69.39071 53.98681,101.2952 5.53446,23.5425 0.2955,33.87355 -6.27339,26.80861 z M 47.020763,592.36147 C 41.721233,558.16463 41.057325,511.74686 44.557472,500 50.935441,478.59486 99.305098,422.03549 137,391.90555 c 51.43158,-41.10981 89.59098,-59.30584 179,-85.35483 53.63815,-15.62728 84.03918,-27.06903 129,-48.55055 28.64573,-13.68644 55.38798,-24.94552 56.5322,-23.8013 0.22964,0.22964 -1.25866,1.01054 -3.30733,1.73533 -12.48947,4.4186 -24.88496,9.78095 -49.72487,21.51123 -15.4,7.27242 -31.6,14.85017 -36,16.83945 -18.80871,8.50359 -61.09244,23.0714 -99.5,34.28026 C 209.26511,338.83913 159.5769,366.59221 99.167705,428 c -21.41633,21.77035 -49.468132,59.34586 -52.761311,70.674 -1.693927,5.8269 -1.341187,9.57746 0.471897,5.01751 C 50.971595,493.39674 84.157792,459.25481 107,441.83835 127.54502,426.17342 173.26558,400 180.08455,400 c 0.98858,0 2.07197,-0.44423 2.40753,-0.98718 2.04623,-3.31088 55.23752,-16.92711 76.00792,-19.45698 2.75,-0.33495 8.15,-1.04636 12,-1.58091 3.85,-0.53455 13.525,-1.66896 21.5,-2.52091 13.13361,-1.40305 19.68709,-2.43047 44.18693,-6.92744 9.68796,-1.77823 38.76086,-9.74075 49.31307,-13.50592 21.66452,-7.73019 28.7133,-10.80543 70.5,-30.75772 C 474.06876,315.63547 479.96245,313 481.18726,313 c 2.15242,0 17.79328,-8.26713 27.01724,-11.56674 12.2019,-4.36488 28.90192,-8.98628 37.33565,-10.83955 20.4353,-6.44964 40.77584,0.98975 60.45985,6.47978 2.475,0.65604 5.4,1.58571 6.5,2.06593 1.1,0.48021 5.15,1.72364 9,2.76316 3.85,1.03952 9.25,2.78953 12,3.88891 2.75,1.09938 8.825,3.15142 13.5,4.5601 4.675,1.40868 12.1,3.72655 16.5,5.15083 4.4,1.42427 11.79324,3.72408 16.42943,5.11068 4.63618,1.38661 9.59471,3.1237 11.01896,3.86021 5.73276,2.96453 31.49702,10.4059 57.55161,16.62236 78.45653,18.71924 151.51835,47.85856 -45.5,-9.40797 -36.43138,-10.58936 -76.32184,-9.477 -102.38668,-4.48929 -13.76945,2.63489 -14.16076,-2.65445 -22.93332,-10.41523 -31.34218,-27.72736 -88.53226,-14.95416 -95.51563,32.65314 -1.26417,8.61814 -0.98312,8.12759 -12.0807,13.54135 -29.74665,14.5114 -46.49062,50.72717 -74.11018,86.27651 -7.92171,9.16107 -22.90863,23.5135 -30.74046,32.73509 -9.20978,10.73935 -100.97198,106.02087 -100.97198,98.86284 0,-13.34598 26.36428,-91.20219 37.7382,-109.21151 5.44598,-8.6231 12.81198,-16.65716 4.99035,-11.05446 -55.63788,39.8538 -115.89058,22.00849 -210.491493,99.05423 -13.637105,11.10648 -39.61703,28.00141 -44.389527,37.10963 -1.935565,3.69399 -3.904785,3.24535 -5.087817,-4.38853 z m 808.833727,-140.682 c -2.00503,-1.36256 -9.78557,-1.90606 -14.70063,-4.44459 -23.53463,-12.15516 -41.85927,-28.46835 -37.19437,-31.06727 1.09481,-0.60995 8.40698,-6.49014 13.9835,-10.47764 12.47577,-8.92083 16.13905,-10.92426 28.27062,0.53006 5.58607,5.27424 12.76831,15.53062 17.99331,19.50147 22.81497,17.33874 25.79768,21.34628 28.1732,24.16942 3.11487,3.70181 1.44888,6.24126 -4.09512,4.96212 -4.09694,-0.94525 -12.60145,-2.06038 -24.16016,-0.62917 -3.70877,0.45921 -5.26583,-0.50262 -8.27035,-2.5444 z M 541.80756,426.49395 c -41.02371,-14.36855 -57.26564,-83.0885 -23.45222,-100.0317 13.64751,-6.83848 31.98505,-3.63716 43.13283,6.6385 13.15567,10.72495 -11.77531,15.62628 -19.073,16.27425 -30.9519,0 -23.59933,44.13904 10.53976,67.38172 11.03124,7.51032 3.10789,14.73013 -11.14737,9.73723 z"
         id="path35"
         sodipodi:nodetypes="sssssssssssssssssssssssssssssssssazssssssssssssssssssssssssssssssssssssss" />
      <path
         style="display:inline;fill:#63068c"
         d="m 382,905.35903 c -50.30471,-3.25929 -56.22004,-7.17177 -87.47791,-57.85903 -3.73092,-6.05 -8.46757,-13.7 -10.52589,-17 -4.96166,-7.95478 -21.25628,-35.07494 -23.7328,-39.5 -1.80813,-3.23077 -30.45427,-51.46767 -34.83713,-58.66184 -30.07683,-49.36904 -32.95938,-51.40392 -30.35723,-57.58525 0.53185,-1.26338 -0.24496,-9.24189 2.21189,-15.84189 6.91327,-18.57159 31.98384,-63.25555 35.7316,-69.41102 1.00461,-1.65 -0.97501,-7.26102 1.85869,-14.41102 26.97328,-49.97253 -19.37617,6.8255 -36.72263,27.11925 -39.65767,45.36053 -75.51705,88.31114 -79.76053,147.14491 -0.77152,11.68956 -1.95095,11.67622 -6.88806,3.50934 C 80.567599,709.07738 60.96308,659.25764 50.011843,607 c -0.509535,-3.025 -1.60861,-8.425 -2.442389,-12 -0.833779,-3.575 -1.965621,-10.775 -2.515206,-16 -0.549585,-5.225 -4.101661,-13.75 -4.685169,-19.25 -2.507771,-23.6376 1.84635,-67.8679 5.153431,-64.56082 0.22228,0.22228 -0.274182,2.63315 -1.103249,5.35748 -3.365882,11.06038 -1.456596,57.72494 3.731595,91.20334 1.183032,7.63388 2.022159,8.69399 3.957724,5 4.772497,-9.10822 29.254315,-35.99053 42.89142,-47.09701 4.125,-3.35952 8.06785,-6.65401 8.7619,-7.32108 17.82013,-17.12749 62.28528,-38.34656 101.2381,-48.31151 4.675,-1.19596 10.75,-2.7862 13.5,-3.53387 2.75,-0.74767 8.825,-2.09852 13.5,-3.00189 33.24767,-6.42459 59.60632,-15.87935 74.9896,-26.8985 7.82163,-5.6027 8.44553,-4.80949 2.99955,3.81361 C 298.61523,482.40907 273,553.02443 273,566.37041 c 0,3.77111 12.44986,-8.46267 27.34502,-26.87041 4.45048,-5.5 10.87958,-13.28555 14.28689,-17.30123 3.4073,-4.01568 7.92152,-9.86055 10.0316,-12.98861 4.41975,-6.55203 20.28544,-26.90605 27.83561,-35.71016 2.82999,-3.3 6.20828,-7.575 7.50732,-9.5 1.29903,-1.925 3.74151,-5.10296 5.42772,-7.06213 1.68621,-1.95918 5.99084,-7.32693 9.56584,-11.92833 27.61956,-35.54934 64.90007,-68.08226 94.64672,-82.59366 11.09758,-5.41376 10.9467,-5.23345 11.64375,-13.91588 1.92308,-23.95373 18.99753,-44.7489 40.20953,-48.97165 1.65,-0.32848 0.24953,0.46416 -3.11216,1.76141 -22.15656,8.55005 -35.7699,28.44 -35.7699,50.78773 0,5.61263 -1.1445,6.59699 -11.91932,12.00304 -4.4,2.20762 -9.89854,4.89013 -11.97622,6.3118 -2.07767,1.42167 -5.00267,3.21969 -6.5,3.99559 -1.49732,0.77591 -3.86397,2.46855 -5.25923,3.76141 -1.39525,1.29287 -4.94154,4.26317 -7.88063,6.60067 -5.42055,4.51773 -4.1046,2.25552 -2.86157,5.5466 0,1.52204 4.12887,4.89154 7.27903,5.74569 1.1,0.29826 2.58705,1.76076 3.30457,3.25 0.71751,1.48924 1.73001,2.70771 2.25,2.70771 2.70075,0 53.91575,51.00175 53.378,84.2399 -1.20496,74.4778 78.89379,-218.32127 -125.64941,184.79117 -28.97324,49.62862 -7.89501,105.18492 14.66457,156.31714 2.50363,4.98014 -3.03571,8.70733 -8.30395,9.58239 -3.73632,0.6206 -17.2349,3.94306 -21.4127,5.4263 -4.83539,1.71671 3.98732,0.66606 33.77102,1.54812 67.92168,2.01155 78.94527,7.54298 90.20743,34.0067 8.13293,19.11066 6.25799,25.08828 -3.0893,25.08828 -4.31439,0 -5.95454,-0.17758 -12.30497,-18.79862 -8.14972,-23.89697 -13.78887,-30.67269 -33.62894,-32.98222 -6.79157,-0.79059 -7.04546,-1.42098 -2.14687,3.47761 10.3462,10.3462 20.42706,42.93672 15.26055,48.10323 -1.31949,1.31949 -13.54936,1.64667 -15.48744,0.41434 -1.68547,-1.07172 -11.00263,-4.33783 -12.62184,-12.72687 -3.66268,-18.9762 -3.4147,-27.52577 -25.69419,-29.89549 -7.37318,-0.78424 -7.83817,-0.63392 -1.9334,2.37847 6.26729,3.19733 7.78019,7.02557 13.42182,22.49556 6.78338,18.60077 1.83841,21.66332 -25.48495,19.89302 z M 323.91814,875 c 0.007,-3.10747 -1.30468,-10.33674 -3.81144,-21 -1.28774,-5.47782 -7.28247,-17.53103 -16.66139,-33.5 -1.61513,-2.75 -3.61356,-6.22178 -4.44096,-7.71507 -0.82739,-1.49329 -2.88888,-5.09329 -4.58108,-8 C 292.73106,801.87822 287.38215,792.525 282.53679,784 c -4.84536,-8.525 -12.31242,-21.575 -16.59346,-29 -38.4752,-66.73102 -40.94569,-75.87901 -34.97258,-129.5 0.55141,-4.95 1.21212,-11.7 1.46825,-15 0.25613,-3.3 0.77509,-8.5875 1.15325,-11.75 0.91525,-7.65422 -0.47963,-7.30878 -4.03798,1 -1.58993,3.7125 -4.4272,10.125 -6.30505,14.25 -17.46151,38.35713 -27.03219,64.3152 -25.41902,68.94275 0.96453,2.76686 6.22778,11.735 34.36625,58.55725 6.28007,10.45 15.40347,25.75 20.27423,34 60.4573,102.40156 71.40418,117.64653 71.44746,99.5 z m 433.09322,2.34036 c -33.22854,-1.97782 -52.05809,-52.3683 -61.12088,-87.07482 -3.44687,-13.2 -9.15112,-26.29845 -9.97875,-29.32345 -1.48923,-5.44311 -1.70777,-16.86339 -5.43985,-34.29449 -1.05982,-4.95 -2.36274,-14.20622 -3.54273,-19.70622 -1.18,-5.5 -2.96641,-13.59579 -4.07777,-16.80381 -3.68682,-10.64261 7.36231,-7.82333 17.53842,9.95 2.20432,3.85 8.19832,17.3653 14.29105,27.87611 6.09273,10.51082 13.2647,24.56633 17.23244,32.20551 6.62753,12.76018 8.97605,17.18039 19.5081,35.85977 10.05483,17.833 10.17027,18.06135 24.46138,21.14359 45.24448,9.75812 63.58898,23.48339 63.58898,45.06635 0,11.10171 -18.04354,17.11469 -20.19586,6.67092 -2.90999,-14.12015 -10.3868,-23.50449 -26.84364,-27.19254 -5.93611,-1.33031 -5.23867,-0.82177 -0.87856,2.77221 6.96171,5.73843 13.68211,24.97874 10.66619,31.29388 -1.61028,3.37182 -1.87704,3.54094 -14.23503,2.80537 z M 403.82668,719.49335 c -1.88029,-1.8803 -2.02344,-16.33767 3.73355,-28.00563 7.01114,-14.20978 13.78702,-25.76232 48.01384,-59.47888 22.99371,-22.65091 25.11121,-3.94406 -11.68512,44.64453 -5.55726,7.33822 -15.59696,16.21784 -18.34323,20.34284 -13.70828,20.59032 -20.57455,23.64163 -21.71904,22.49714 z m 54.68721,-0.0817 c 1.1,-0.83376 16.01269,-14.26874 21.23769,-17.34355 8.88818,-5.23052 17.25229,-6.65656 29.14186,-15.06807 2.72097,-1.925 1.70945,-12.06197 6.29694,-15.20252 20.47399,-14.0163 45.51856,-38.32605 83.52053,-80.04085 6.76414,-7.425 23.30834,-11.18163 26.69428,-14.75663 3.38594,-3.575 6.35827,-16.09193 9.35169,-19.57581 13.66129,-15.89962 25.44097,-2.92484 7.93412,23.28214 -38.37945,57.45233 -74.76027,92.20402 -103.87466,109.52251 -11.22537,6.67733 -86.45407,33.8455 -80.30245,29.18278 z M 799.85533,548.86807 c -15.93503,-2.89978 -30.57995,-9.005 -46.35533,-15.16302 -4.95,-1.93226 -10.125,-3.82822 -11.5,-4.21325 -1.375,-0.38503 -3.4,-1.24531 -4.5,-1.91173 -5.73433,-3.47408 -31.87121,1.64133 -47.99306,-1.10006 -13.54747,-17.16002 -8.86481,-8.74142 -29.49432,-6.99074 -64.17989,-11.69611 -90.37833,-37.03717 -98.9893,-78.83391 -1.27919,-6.20907 -2.15309,-9.20528 -9.21147,-9.14347 -51.41054,0.45013 -84.58725,-100.24312 -34.77351,-107.4508 3.93824,-0.56984 3.93824,-0.56984 -0.56176,0.76093 -39.53605,11.6918 -21.06178,74.97579 21.0382,95.78273 16.27894,8.04549 27.33826,5.05993 14.25415,-3.84803 C 517.62984,393.51404 511.52577,349 542.47767,349 c 3.28163,0 4.41395,-0.1313 6.97896,-1.18909 2.56501,-1.05779 6.1977,-3.01585 8.24021,-5.4152 2.04251,-2.39935 3.55817,-5.5467 2.72883,-8.35746 -1.70126,-5.76583 -7.37481,-10.05004 -14.00787,-11.35919 -3.14324,-0.62038 -3.52639,-0.86308 -1.49103,-0.94449 10.76563,-0.43061 23.08727,12.85052 34.61368,31.64961 6.3137,10.29739 4.97314,10.27498 5.04713,-3.37664 0.081,-14.95176 -2.4836,-19.21877 -6.94747,-27.58417 -4.06191,-7.6121 -9.92489,-14.43501 -17.33098,-19.22566 -2.28763,-1.47976 -8.23167,-3.18365 -7.52589,-3.18864 4.59339,-0.0325 18.32398,7.59509 26.83782,16.74018 6.05856,6.50777 5.99606,8.38277 19.9375,5.71504 26.24757,-5.02252 66.93637,-1.51829 103.44144,9.22341 32.98651,9.70636 106.17315,13.3152 112.29638,-0.56515 2.68009,-6.07532 9.35792,11.486 9.92547,12.20386 25.42328,32.15631 4.89822,45.79532 26.00766,65.79006 6.07928,5.75827 16.86157,13.47558 25.47114,19.95481 18.85325,14.18823 38.08298,41.65835 25.25614,38.37226 -11.03526,1.54218 -11.59561,17.95575 -16.5536,27.93441 -15.26352,29.91896 -38.03193,38.18377 -68.11385,29.2888 -21.62401,-6.39403 -35.33788,-10.95516 -53.16977,-7.51104 -16.3054,3.14929 -14.05814,1.89901 4.32322,2.87669 11.31916,0.60205 19.9965,5.08261 43.55721,13.56421 5.775,2.07893 16.5434,2.3914 20.3934,2.99302 8.97306,1.40216 15.16046,5.46719 6.57615,9.67578 -8.95907,4.39232 -21.34508,5.83619 -39.11422,2.60266 z M 876,452.43302 c 4.125,-0.3352 9.5128,-0.14505 11.97289,0.42254 5.544,1.27914 5.71189,1.1117 2.59702,-2.59011 -2.37552,-2.82314 -5.75494,-5.52795 -28.56991,-22.86669 -5.225,-3.97085 -14.07043,-11.53501 -19.6565,-16.80925 -12.13157,-11.45432 -10.24748,-11.26034 -22.72325,-2.33951 -5.57652,3.9875 -11.03488,7.74904 -12.12969,8.35899 -4.6649,2.59892 12.24731,15.82243 35.78194,27.97759 4.91506,2.53853 10.57696,5.73033 12.58199,7.09289 3.00452,2.04178 4.43674,2.3794 8.14551,1.92019 2.475,-0.30646 7.875,-0.83144 12,-1.16664 z"
         id="path34"
         sodipodi:nodetypes="sssssssssssssssssssssssssssssssssssssssssssssssssassssssssssssssssscsssssssssssssscssssssssssssssssssssssssssssssssssssssssssssssczasssssasssssssssssssssssssssssssssss" />
      <path
         style="display:inline;fill:#310b5d"
         d="M 806.21753,911.84936 C 775.5948,923.0327 632.66271,930.70742 489.41421,929.6167 285.68909,928.0655 208.00133,885.16437 107.837,794.80796 57.921782,749.78036 34.699335,666.39897 21.486247,612.55903 8.2731588,558.71909 5.0327679,523.68944 16.532682,481.51763 22.940757,458.01831 38.537161,437.00941 55.978381,420.00691 120.45185,357.1552 194.26504,307.41828 287,280.03011 c 81.59299,-24.09753 101.85348,-31.49548 150,-54.77127 62.4931,-30.21145 124.49456,-41.62181 197,-36.25466 100.22863,7.41934 157.5904,43.13276 206.92756,128.83302 18.12584,31.48517 21.55631,43.93813 17.50304,63.5377 -2.07735,10.045 -0.84518,11.64348 20.40612,26.47259 30.96963,24.52572 65.47155,44.74805 32.69933,84.96174 -3.59466,3.99117 -7.7243,9.60434 -9.17697,12.47372 -6.78495,13.40191 -23.0178,33.41559 -33.70785,41.55882 -3.36331,2.56203 -7.24823,5.97321 -8.63317,7.5804 -20.05659,23.27534 -45.03445,25.20492 -99.00315,7.64816 C 733.06124,552.97662 709.42671,546 706.57381,546 c -2.78056,0 -1.99444,5.33524 5.45176,37 4.60054,19.56372 6.56493,33.47502 7.97824,56.5 2.70548,44.07639 18.10867,94.79529 44.2804,145.80451 8.20138,15.98465 12.08029,18.6709 27.01501,18.70863 19.89839,0.0503 41.35857,9.84069 56.37221,40.44342 18.78989,38.29997 -10.83118,56.20946 -41.4539,67.3928 z m -400.15179,-6.88454 c 2.82792,-1.51346 2.61989,-10.59341 -0.4346,-18.96915 -5.64163,-15.46999 -8.42178,-19.82789 -14.68907,-23.02522 -5.90477,-3.01239 -5.06525,-4.28629 2.30793,-3.50205 22.27949,2.36972 32.51826,10.79445 36.18094,29.77065 1.61921,8.38904 3.19615,12.90357 4.88162,13.97529 1.93808,1.23233 14.16795,0.90515 15.48744,-0.41434 5.16651,-5.16651 -5.69461,-37.69461 -16.04081,-48.04081 -4.89859,-4.89859 -4.80076,-5.11088 1.99081,-4.32029 19.84007,2.30953 28.00452,9.95379 36.15424,33.85076 6.35043,18.621 6.4016,18.71034 10.71599,18.71034 6.70751,0 8.97347,-4.7174 6.29285,-13.10078 -11.96339,-37.41433 -23.28052,-42.68336 -96.32411,-44.8466 -29.7837,-0.88206 -38.34158,-1.7735 -33.50619,-3.49021 4.1778,-1.48324 19.00053,-5.42364 22.73685,-6.04424 5.26824,-0.87506 5.88962,-2.19108 3.38599,-7.17122 -2.31458,-4.60409 -11.93232,-32.50143 -13.6973,-39.73055 -0.68703,-2.81402 -2.43607,-9.11666 -3.88674,-14.00587 -1.45067,-4.88921 -3.0517,-11.18921 -3.55784,-14 -0.50615,-2.81079 -1.37957,-6.91065 -1.94093,-9.1108 -0.56137,-2.20015 -1.24055,-5.57515 -1.50931,-7.5 -0.26875,-1.92485 -1.41663,-8.89973 -2.55083,-15.49973 -4.14879,-24.14196 -2.39945,-33.29501 11.65835,-61 3.62798,-7.15 10.57997,-21.1 15.44885,-31 4.86888,-9.9 9.28678,-18.675 9.81755,-19.5 1.9927,-3.09737 13.94702,-26.75005 20.97453,-41.5 8.56688,-17.98089 10.07193,-21.06577 10.97733,-22.5 0.5208,-0.825 3.62771,-6.9 6.90425,-13.5 3.27654,-6.6 7.09075,-14.025 8.47603,-16.5 12.17082,-25.38583 32.63776,-46.93324 31.8712,-76.66488 C 471.39887,419.66097 434.97513,394.50844 434.86937,389 c -0.0401,-2.08741 0.8327,-2.66285 3.77179,-5.00035 9.41272,-8.50248 20.56408,-14.46282 31.85884,-20.20602 10.77482,-5.40605 11.5,-6.14765 11.5,-11.76028 0,-45.88353 54.56357,-70.04539 89.74011,-39.73874 12.48686,10.75816 14.46972,16.07974 14.34818,38.50742 -0.074,13.65162 -1.29346,14.29197 -7.60716,3.99458 -20.06444,-32.72426 -47.67723,-40.66548 -67.31628,-19.35963 -25.46379,27.62496 4.87546,91.04394 43.39353,90.70669 7.05838,-0.0618 7.05838,-0.0618 8.33757,6.14726 8.04967,39.07224 41.20611,65.47927 96.10405,76.54088 12.93756,2.60684 21.83903,4.25413 36,6.66209 47.89463,8.14409 107.94795,45.21508 136.5,29.71291 7.03585,-3.82008 6.56747,-5.39769 -2,-6.73647 -3.85,-0.60162 -11.725,-2.7948 -17.5,-4.87373 -23.56071,-8.4816 -35.68084,-11.63801 -47,-12.24006 -18.38136,-0.97768 -18.95137,-2.11087 -2.64597,-5.26016 17.83189,-3.44412 33.02196,-2.30844 54.64597,4.08559 30.08192,8.89497 47.75479,0.70109 63.01831,-29.21787 2.79417,-5.47703 2.33754,-5.63465 -4.46198,-1.54019 -9.91049,5.96778 -15.19772,5.67844 -21.73609,-1.18952 -16.86978,-17.72016 6.43743,-40.92017 34.01227,-33.85582 7.61061,1.94975 7.16749,1.93259 7.16749,0.27751 0,-2.49062 -9.4376,-11.08567 -25.18494,-22.93651 -8.60957,-6.47923 -20.62773,-16.49173 -26.70701,-22.25 C 837.02876,403.71131 831.61,399 831.06636,399 c -1.40193,0 -5.09272,-4.07571 -6.15583,-6.79783 -1.29996,-3.3286 0.97734,-7.91671 6.45608,-13.00723 7.58168,-7.04442 5.56698,-15.6517 -8.43996,-36.05753 C 815.31795,332.05277 816.3322,333.8056 810.69576,322 781.24949,260.32439 719.82085,225.62014 626.5,217.9382 c -60.32083,-4.96546 -112.16996,5.89911 -177,37.08893 -46.88447,22.55618 -88.043,37.84326 -148,54.97006 C 194.193,340.64959 124.12778,386.92802 64.278178,466.6834 40.914193,497.81816 37.85271,511.16734 42.991741,559.5 c 0.584794,5.5 1.512922,14.275 2.062507,19.5 0.549585,5.225 1.681427,12.425 2.515206,16 0.833779,3.575 1.932854,8.975 2.442389,12 9.882816,49.14423 28.333534,96.94108 56.488157,138.50819 2.2,3.13506 4.45,6.44449 5,7.35429 4.93711,8.16688 5.1178,8.05538 5.88932,-3.63418 2.30275,-57.17866 39.33064,-105.82896 75.46266,-148.07939 C 204.70486,587.79962 247.5353,546 249.3609,546 c 1.2692,0 0.59206,3.35887 -1.78917,8.87495 -1.33555,3.09378 -4.74676,11.47505 -7.58046,18.62505 -2.8337,7.15 -5.97413,14.35 -6.97874,16 -3.74776,6.15547 -23.69828,52.42841 -30.61155,71 -2.45685,6.6 -4.90214,13.03367 -5.43399,14.29705 -2.60215,6.18133 -1.61755,8.17207 28.45928,57.54111 4.38286,7.19417 33.029,55.43107 34.83713,58.66184 2.47652,4.42506 18.77114,31.54522 23.7328,39.5 2.05832,3.3 6.79497,10.95 10.52589,17 28.54758,46.29229 37.55545,53.5548 69.97791,56.41903 24.81315,2.19202 38.76795,2.54312 41.56574,1.04579 z M 724.5,425.39433 c -20.76211,-5.06089 -30.7708,-13.83143 -35.39922,-31.02005 -1.10192,-4.09223 -1.10192,-4.09223 -16.85135,-4.1237 -15.95099,-0.0319 -35.42595,-1.69034 -38.22158,-3.25489 -1.75457,-0.98194 2.4241,-2.99569 6.21625,-2.99569 1.16265,0 3.49585,-0.44637 5.1849,-0.99193 37.19142,-12.01282 65.67946,-13.14545 86.96216,-3.45743 27.28584,12.42068 53.80079,16.97166 63.32366,10.86876 3.32564,-2.13129 3.90966,-1.71303 1.37513,0.98486 C 794.44358,394.22118 783.1401,400 780.27651,400 c -4.01516,0 -8.27781,2.26604 -10.24247,5.44493 -8.38772,13.57161 -31.02001,23.48729 -45.53404,19.9494 z M 550.90683,414.81146 C 526.9901,398.05763 516.3019,368.4981 529.41815,355.38185 c 15.43788,-15.43788 39.43794,7.59065 29.94843,28.7361 -2.66144,5.93048 -2.57207,17.62534 0.24938,32.63205 0.81533,4.33656 -0.015,4.15173 -8.70913,-1.93854 z m 237.95853,457.79395 c 3.01592,-6.31514 -2.73343,-23.8782 -9.69514,-29.61663 -4.36011,-3.59398 -3.82168,-4.36735 2.11443,-3.03704 16.45684,3.68805 26.75851,13.16067 29.6685,27.28082 C 813.10547,877.67633 827,873.42889 827,862.32718 827,840.74422 810.24448,829.13759 765,819.37947 750.70889,816.29723 749.00447,814.833 738.94964,797 c -10.53205,-18.67938 -13.23368,-23.62925 -19.86121,-36.38943 -3.96774,-7.63918 -12.19903,-22.48918 -18.29176,-33 C 694.70394,717.09976 687.91545,705.35 685.71113,701.5 c -10.17611,-17.77333 -13.54516,-21.47538 -9.85834,-10.83277 1.11133,3.20802 2.98605,10.33277 4.16605,15.83277 1.17999,5.5 3.01257,14.05 4.07239,19 3.73208,17.4311 6.15754,28.05689 7.64677,33.5 0.82763,3.025 4.32496,16.3 7.77183,29.5 9.40174,36.00454 26.57884,91.0976 80.48167,87.5 7.07002,-0.47187 7.56926,-0.66285 8.87386,-3.39459 z m -107.98724,2.49108 c 1.63714,-1.03695 1.53386,-1.22887 -5.99398,-11.13835 -11.02173,-14.50875 -19.59699,-23.55903 -34.43201,-36.33936 -60.29591,-51.94477 -81.30376,-72.28193 -96.28667,-93.21269 -16.9639,-23.69813 -15.86383,-23.26011 -35.26898,-14.04298 C 477.3845,735.33078 450.1024,746.6928 427,754.47007 c -15.5,5.21798 -15.5,5.21798 -15.45236,21.12395 0.11205,37.41048 5.35339,45.30144 30.87962,46.49006 37.52319,1.74724 59.15419,15.8588 68.96423,44.99064 1.33201,3.95553 3.02633,7.575 3.76517,8.04326 1.77745,1.12652 163.94217,1.10549 165.72146,-0.0215 z M 414.21264,707.5 c 2.25098,-3.3 6.33964,-9.375 9.08592,-13.5 2.74627,-4.125 9.54007,-13.50399 15.09733,-20.84221 36.79633,-48.58859 41.17063,-56.8087 18.17692,-34.15779 -38.28949,37.71867 -44.39748,45.74026 -50.53531,66.36777 -5.25011,17.64414 -2.83538,18.27395 8.17514,2.13223 z m 84.1174,-4.95818 C 546.94369,683.17253 560.91168,672.48853 597.09156,627 c 13.7553,-17.29437 46.54608,-64.28616 48.60773,-69.65874 1.1701,-3.04923 -3.07288,0.28084 -8.69525,6.82441 -2.99342,3.48388 -8.21291,9.25933 -11.59885,12.83433 -3.38594,3.575 -11.69055,12.575 -18.45469,20 -38.00197,41.7148 -64.29497,66.77361 -84.76896,80.78991 -4.58749,3.14055 -10.56713,7.28509 -13.2881,9.21009 -11.88957,8.41151 -19.00526,13.08345 -27.89344,18.31397 -19.82735,11.668 -18.29849,11.42344 17.33004,-2.77215 z"
         id="path33"
         sodipodi:nodetypes="zsasaassssssssssssssssszsssssssssssssssssssssssssssssaasssssssssssssssssssssssssssssssssssssssssssssssssssssssssssssssssssssssssssssssssssssssssssssssssssssssssssssssssss" />
    </g>
  </g>
</svg>
